<svg xmlns="http://www.w3.org/2000/svg" viewBox="0 0 1400 640" preserveAspectRatio="xMidYMid slice">
  <defs>
    <linearGradient id="sky" x1="0" y1="0" x2="1" y2="1">
      <stop offset="0" stop-color="#f8fafc"/>
      <stop offset="1" stop-color="#dbeafe"/>
    </linearGradient>
    <linearGradient id="road" x1="0" y1="0" x2="0" y2="1">
      <stop offset="0" stop-color="#e5e7eb"/>
      <stop offset="1" stop-color="#cbd5e1"/>
    </linearGradient>
    <filter id="softShadow" x="-20%" y="-20%" width="140%" height="140%">
      <feDropShadow dx="0" dy="12" stdDeviation="14" flood-color="#0f172a" flood-opacity="0.18"/>
    </filter>
  </defs>
  <rect width="1400" height="640" fill="url(#sky)"/>
  <circle cx="1130" cy="95" r="88" fill="#fed7aa" opacity=".65"/>
  <g opacity=".22" fill="#1e293b">
    <rect x="85" y="120" width="120" height="230" rx="12"/>
    <rect x="230" y="90" width="150" height="270" rx="12"/>
    <rect x="1035" y="115" width="125" height="235" rx="12"/>
    <rect x="1180" y="75" width="165" height="285" rx="12"/>
  </g>
  <g filter="url(#softShadow)">
    <rect x="430" y="120" width="360" height="285" rx="18" fill="#f8fafc"/>
    <rect x="455" y="155" width="70" height="80" rx="8" fill="#93c5fd"/>
    <rect x="545" y="155" width="70" height="80" rx="8" fill="#93c5fd"/>
    <rect x="635" y="155" width="70" height="80" rx="8" fill="#93c5fd"/>
    <rect x="725" y="155" width="42" height="80" rx="8" fill="#93c5fd"/>
    <rect x="455" y="255" width="70" height="80" rx="8" fill="#bae6fd"/>
    <rect x="545" y="255" width="70" height="80" rx="8" fill="#bae6fd"/>
    <rect x="635" y="255" width="70" height="80" rx="8" fill="#bae6fd"/>
    <rect x="725" y="255" width="42" height="80" rx="8" fill="#bae6fd"/>
    <rect x="410" y="390" width="400" height="48" rx="10" fill="#334155"/>
  </g>
  <g filter="url(#softShadow)">
    <rect x="795" y="178" width="310" height="230" rx="18" fill="#fff7ed"/>
    <rect x="820" y="210" width="62" height="68" rx="8" fill="#7dd3fc"/>
    <rect x="900" y="210" width="62" height="68" rx="8" fill="#7dd3fc"/>
    <rect x="980" y="210" width="62" height="68" rx="8" fill="#7dd3fc"/>
    <rect x="820" y="300" width="62" height="68" rx="8" fill="#bae6fd"/>
    <rect x="900" y="300" width="62" height="68" rx="8" fill="#bae6fd"/>
    <rect x="980" y="300" width="62" height="68" rx="8" fill="#bae6fd"/>
    <rect x="775" y="390" width="350" height="48" rx="10" fill="#475569"/>
  </g>
  <rect x="0" y="435" width="1400" height="205" fill="url(#road)"/>
  <path d="M0 474 C220 432 400 462 570 492 C770 528 990 510 1400 458 L1400 640 L0 640 Z" fill="#94a3b8" opacity=".35"/>
  <g fill="#16a34a" opacity=".8">
    <circle cx="360" cy="430" r="40"/><rect x="352" y="430" width="16" height="70" rx="8"/>
    <circle cx="1135" cy="420" r="38"/><rect x="1127" y="420" width="16" height="72" rx="8"/>
  </g>
  <g transform="translate(250 392)">
    <circle cx="35" cy="36" r="20" fill="#92400e"/>
    <path d="M15 63 h45 l18 88 h-80 z" fill="#1d4ed8"/>
    <rect x="-2" y="145" width="18" height="70" rx="9" fill="#0f172a"/>
    <rect x="52" y="145" width="18" height="70" rx="9" fill="#0f172a"/>
    <circle cx="120" cy="34" r="18" fill="#7c2d12"/>
    <path d="M98 60 h43 l24 90 h-88 z" fill="#fb923c"/>
    <rect x="84" y="145" width="17" height="70" rx="8" fill="#0f172a"/>
    <rect x="140" y="145" width="17" height="70" rx="8" fill="#0f172a"/>
  </g>
  <g transform="translate(1035 398)">
    <circle cx="35" cy="32" r="19" fill="#78350f"/>
    <path d="M12 58 h48 l20 90 h-88 z" fill="#0f766e"/>
    <rect x="-3" y="145" width="18" height="68" rx="9" fill="#111827"/>
    <rect x="52" y="145" width="18" height="68" rx="9" fill="#111827"/>
  </g>
</svg>
